<?xml version="1.0" encoding="utf-8"?>
<!-- Generator: Adobe Illustrator 24.1.2, SVG Export Plug-In . SVG Version: 6.00 Build 0)  -->
<svg version="1.1" id="Layer_1" xmlns="http://www.w3.org/2000/svg" xmlns:xlink="http://www.w3.org/1999/xlink" x="0px" y="0px"
	 viewBox="0 0 51 79.5" style="enable-background:new 0 0 51 79.5;" xml:space="preserve">
<style type="text/css">
	.st0{clip-path:url(#SVGID_2_);fill:#FFFFFF;}
	.st1{clip-path:url(#SVGID_2_);fill:#6CC11F;}
	.st2{fill:#6CC11F;}
</style>
<g>
	<defs>
		<circle id="SVGID_1_" cx="25.5" cy="25.4" r="20.7"/>
	</defs>
	<clipPath id="SVGID_2_">
		<use xlink:href="#SVGID_1_"  style="overflow:visible;"/>
	</clipPath>
	<circle class="st0" cx="25.5" cy="25.4" r="20.7"/>
	<path class="st1" d="M24.8,4l-6.9,5.2l4.3,3.4h-4.3c0,0-5.2,0-5.2,5.2V35h8.6c0,0,0-3.4,3.4-3.4h22.4v-5.2h-6.9V16.1h6.9v-3.4H27.4
		l4.3-3.4L24.8,4 M16.2,16.1h8.6v10.3h-8.6V16.1 M28.2,16.1h8.6v10.3h-8.6V16.1 M16.2,29.9h1.7v3.4h-1.7V29.9 M24.8,35v0.9
		c0,2.4,1.9,4.3,4.3,4.3c1.7,0,3.3-1,3.9-2.6h2.4c0.7,1.6,2.2,2.6,3.9,2.6c2.4,0,4.3-1.9,4.3-4.3V35H24.8z"/>
</g>
<path class="st2" d="M25.5,0C11.4,0,0,11.4,0,25.6c0,3.7,0.8,7.1,2.1,10.3l22,42.7c0.6,1.2,2.2,1.2,2.8,0l22-42.7
	c1.4-3.1,2.1-6.6,2.1-10.3C51,11.4,39.6,0,25.5,0z M25.5,46.1c-11.4,0-20.7-9.3-20.7-20.7S14.1,4.7,25.5,4.7S46.2,14,46.2,25.4
	S36.9,46.1,25.5,46.1z"/>
</svg>
