<?xml version="1.0" encoding="utf-8"?>
<!-- Generator: Adobe Illustrator 24.1.2, SVG Export Plug-In . SVG Version: 6.00 Build 0)  -->
<svg version="1.1" id="Layer_1" xmlns="http://www.w3.org/2000/svg" xmlns:xlink="http://www.w3.org/1999/xlink" x="0px" y="0px"
	 viewBox="0 0 51 79.5" style="enable-background:new 0 0 51 79.5;" xml:space="preserve">
<style type="text/css">
	.st0{clip-path:url(#SVGID_2_);fill:#FFFFFF;}
	.st1{clip-path:url(#SVGID_4_);fill:#0087BD;}
	.st2{fill:#0087BD;}
</style>
<g>
	<g>
		<defs>
			<circle id="SVGID_1_" cx="25.5" cy="25.4" r="20.7"/>
		</defs>
		<clipPath id="SVGID_2_">
			<use xlink:href="#SVGID_1_"  style="overflow:visible;"/>
		</clipPath>
		<circle class="st0" cx="25.5" cy="25.4" r="20.7"/>
	</g>
	<g>
		<defs>
			<circle id="SVGID_3_" cx="25.5" cy="25.4" r="20.7"/>
		</defs>
		<clipPath id="SVGID_4_">
			<use xlink:href="#SVGID_3_"  style="overflow:visible;"/>
		</clipPath>
		<path class="st1" d="M59.1,12.6H17.5c-2.6,0-4.6,2.1-4.6,4.6v16.2h4.6c0,3.8,3.1,6.9,6.9,6.9s6.9-3.1,6.9-6.9h13.8
			c0,3.8,3.1,6.9,6.9,6.9s6.9-3.1,6.9-6.9h4.6V17.2C63.7,14.6,61.6,12.6,59.1,12.6 M60.2,16v5.8H51V16H60.2 M47.5,16v5.8h-9.2V16
			H47.5 M34.8,16v5.8h-9.2V16H34.8 M22.1,16v8.1l-5.8,4.6V16H22.1 M52.2,29.9c1.9,0,3.5,1.5,3.5,3.5c0,1.9-1.5,3.5-3.5,3.5
			s-3.5-1.5-3.5-3.5S50.2,29.9,52.2,29.9 M27.9,33.3c0,1.9-1.5,3.5-3.5,3.5S21,35.2,21,33.3c0-1.9,1.5-3.5,3.5-3.5
			S27.9,31.4,27.9,33.3z"/>
	</g>
</g>
<path class="st2" d="M25.5,0C11.4,0,0,11.4,0,25.6c0,3.7,0.8,7.1,2.1,10.3l22,42.7c0.6,1.2,2.2,1.2,2.8,0l22-42.7
	c1.4-3.1,2.1-6.6,2.1-10.3C51,11.4,39.6,0,25.5,0z M25.5,46.1c-11.4,0-20.7-9.3-20.7-20.7S14.1,4.7,25.5,4.7S46.2,14,46.2,25.4
	S36.9,46.1,25.5,46.1z"/>
</svg>
